#!OML:ASF E:\VariousWalksJay\Project 1\Capture day 1\Session 1\Actor2.ASF
:FULLY-SPECIFIED
:DEGREES
908
root -14.8591 16.9778 44.5174 22.4409 -47.6952 -11.5607
lowerback 9.43857 -2.93795 2.91937
upperback 8.36209 -3.86614 -1.64062
thorax 3.13768 -1.8337 -3.08121
lowerneck -1.28093 -0.497355 -1.29786
upperneck -7.54776 -0.112492 12.1762
head -2.21912 -0.379092 4.3
rclavicle -3.02153e-014 9.54166e-015
rhumerus -40.2725 19.4826 -88.8644
rradius 66.9492
rwrist 10.7819
rhand -37.588 6.47428
rfingers 7.12502
rthumb -10.6419 -23.2362
lclavicle -3.02153e-014 9.54166e-015
lhumerus 8.63139 -45.315 73.7158
lradius 73.702
lwrist 38.032
lhand -30.4978 5.09189
lfingers 7.12502
lthumb -3.79817 35.0378
rfemur -34.7212 4.74702 26.403
rtibia 36.1791
rfoot -22.1523 -4.00116
rtoes -15.7811
lfemur -31.7391 12.6533 -20.803
ltibia 32.8117
lfoot -13.4902 -0.202244
ltoes -28.3528
909
root -14.901 16.9802 44.5499 22.081 -47.7138 -11.4928
lowerback 9.12499 -2.98764 2.91698
upperback 8.20693 -3.93293 -1.64074
thorax 3.13936 -1.86607 -3.08598
lowerneck -1.50883 -0.567776 -1.36831
upperneck -7.16018 -0.243191 12.3422
head -2.03893 -0.424026 4.36365
rclavicle 4.29375e-014 -6.04305e-014
rhumerus -40.4875 18.4315 -89.5636
rradius 66.8712
rwrist 11.9771
rhand -37.493 6.5084
rfingers 7.12502
rthumb -10.5503 -23.2068
lclavicle 4.29375e-014 -6.04305e-014
lhumerus 8.36523 -44.9743 73.874
lradius 73.3513
lwrist 38.1679
lhand -30.2885 5.1876
lfingers 7.12502
lthumb -3.59602 35.137
rfemur -34.3444 4.3639 26.6315
rtibia 35.8567
rfoot -21.9841 -3.47704
rtoes -15.9384
lfemur -31.0821 12.5254 -20.6938
ltibia 32.6834
lfoot -13.7009 -0.019299
ltoes -28.1941
910
root -14.9426 16.982 44.5823 21.7053 -47.7208 -11.4095
lowerback 8.81179 -3.04011 2.92795
upperback 8.0525 -4.00278 -1.64495
thorax 3.14084 -1.89931 -3.10271
lowerneck -1.73272 -0.636194 -1.43611
upperneck -6.76693 -0.372705 12.4996
head -1.85795 -0.46768 4.42395
rclavicle 7.79236e-014 6.36111e-015
rhumerus -40.6348 17.8943 -89.9835
rradius 66.8856
rwrist 12.5775
rhand -37.3965 6.4884
rfingers 7.12502
rthumb -10.4572 -23.2315
lclavicle 7.79236e-014 6.36111e-015
lhumerus 8.0838 -44.6479 74.0449
lradius 73.0022
lwrist 38.3253
lhand -30.0839 5.27547
lfingers 7.12502
lthumb -3.39851 35.2281
rfemur -33.9355 4.00571 26.8207
rtibia 35.616
rfoot -21.7689 -3.01207
rtoes -16.0257
lfemur -30.4215 12.3794 -20.5926
ltibia 32.5537
lfoot -13.9126 0.162329
ltoes -27.914
911
root -14.9843 16.983 44.6156 21.3028 -47.7429 -11.319
lowerback 8.50492 -3.09184 2.94445
upperback 7.90706 -4.07182 -1.6575
thorax 3.14797 -1.93172 -3.13172
lowerneck -1.96139 -0.698108 -1.48164
upperneck -6.35628 -0.497079 12.6293
head -1.67091 -0.50746 4.46967
rclavicle 7.95139e-015 0
rhumerus -40.7143 17.7776 -90.1969
rradius 66.9568
rwrist 12.7037
rhand -37.2927 6.40711
rfingers 7.12502
rthumb -10.357 -23.3178
lclavicle 7.95139e-015 0
lhumerus 7.78704 -44.3211 74.2221
lradius 72.6497
lwrist 38.5069
lhand -29.8893 5.35814
lfingers 7.12502
lthumb -3.21052 35.3137
rfemur -33.4682 3.69844 26.9617
rtibia 35.443
rfoot -21.5156 -2.595
rtoes -15.9972
lfemur -29.7301 12.2112 -20.4948
ltibia 32.4251
lfoot -14.1389 0.371595
ltoes -27.5524
912
root -15.026 16.9833 44.649 20.8757 -47.7751 -11.2123
lowerback 8.20187 -3.13713 2.96127
upperback 7.76728 -4.13271 -1.67613
thorax 3.15952 -1.95994 -3.1682
lowerneck -2.18301 -0.761402 -1.54172
upperneck -5.93933 -0.623988 12.7707
head -1.48326 -0.547966 4.5231
rclavicle 3.33958e-014 -2.8625e-014
rhumerus -40.7513 17.8808 -90.2869
rradius 67.0382
rwrist 12.5652
rhand -37.1955 6.28482
rfingers 7.12502
rthumb -10.2633 -23.4448
lclavicle 3.33958e-014 -2.8625e-014
lhumerus 7.48672 -44.0132 74.4085
lradius 72.2901
lwrist 38.7072
lhand -29.7021 5.45171
lfingers 7.12502
lthumb -3.02981 35.4099
rfemur -32.9562 3.41408 27.0589
rtibia 35.3268
rfoot -21.1968 -2.22826
rtoes -15.8904
lfemur -29.0234 12.0268 -20.4096
ltibia 32.2985
lfoot -14.3711 0.599908
ltoes -27.134
913
root -15.0679 16.9829 44.6817 20.4396 -47.8235 -11.0962
lowerback 7.90186 -3.17417 2.96615
upperback 7.62727 -4.18344 -1.69729
thorax 3.17079 -1.98365 -3.20149
lowerneck -2.40926 -0.826244 -1.59571
upperneck -5.50125 -0.756318 12.9018
head -1.28756 -0.589715 4.57169
rclavicle -1.43125e-014 3.18055e-015
rhumerus -40.818 17.9789 -90.3778
rradius 67.1275
rwrist 12.4091
rhand -37.12 6.16823
rfingers 7.12502
rthumb -10.1904 -23.565
lclavicle -1.43125e-014 3.18055e-015
lhumerus 7.17674 -43.7198 74.6063
lradius 71.9188
lwrist 38.9081
lhand -29.5305 5.55408
lfingers 7.12502
lthumb -2.86405 35.5146
rfemur -32.4128 3.16981 27.115
rtibia 35.2537
rfoot -20.7857 -1.93805
rtoes -15.7054
lfemur -28.3183 11.8546 -20.3384
ltibia 32.1763
lfoot -14.602 0.826267
ltoes -26.7287
914
root -15.1103 16.982 44.7137 19.9805 -47.899 -10.9693
lowerback 7.61088 -3.19033 2.9597
upperback 7.49345 -4.20732 -1.72128
thorax 3.18651 -1.99441 -3.23306
lowerneck -2.64174 -0.900791 -1.65616
upperneck -5.04532 -0.904394 13.028
head -1.08371 -0.637745 4.62
rclavicle -1.11319e-014 -9.54166e-015
rhumerus -40.9024 18.0369 -90.4529
rradius 67.2078
rwrist 12.2602
rhand -37.0634 6.07936
rfingers 7.12502
rthumb -10.1358 -23.6565
lclavicle -1.11319e-014 -9.54166e-015
lhumerus 6.87274 -43.4654 74.8211
lradius 71.5293
lwrist 39.0957
lhand -29.3725 5.66734
lfingers 7.12502
lthumb -2.71144 35.6299
rfemur -31.8247 2.94175 27.1357
rtibia 35.2125
rfoot -20.2898 -1.67828
rtoes -15.3846
lfemur -27.5971 11.7106 -20.2827
ltibia 32.0576
lfoot -14.8341 1.04847
ltoes -26.375
915
root -15.1531 16.9808 44.7438 19.5221 -48.0016 -10.8334
lowerback 7.31882 -3.19374 2.92141
upperback 7.35857 -4.21579 -1.7458
thorax 3.20516 -1.99885 -3.2485
lowerneck -2.88129 -0.976903 -1.70152
upperneck -4.57124 -1.05803 13.1349
head -0.872368 -0.687261 4.65849
rclavicle 9.62118e-014 -6.36111e-014
rhumerus -40.9898 18.0839 -90.5335
rradius 67.274
rwrist 12.1076
rhand -37.0171 6.01343
rfingers 7.12502
rthumb -10.0912 -23.7246
lclavicle 9.62118e-014 -6.36111e-014
lhumerus 6.56835 -43.2238 75.0383
lradius 71.1217
lwrist 39.2603
lhand -29.22 5.79983
lfingers 7.12502
lthumb -2.56413 35.7642
rfemur -31.2271 2.73885 27.125
rtibia 35.1882
rfoot -19.7574 -1.42242
rtoes -14.8058
lfemur -26.8913 11.6114 -20.2453
ltibia 31.9422
lfoot -15.0565 1.25112
ltoes -26.1291
916
root -15.1963 16.9791 44.7712 19.0483 -48.1326 -10.6626
lowerback 7.03051 -3.17438 2.83857
upperback 7.21897 -4.19553 -1.77203
thorax 3.22197 -1.99087 -3.24206
lowerneck -3.11103 -1.06605 -1.7883
upperneck -4.09554 -1.2285 13.2717
head -0.660409 -0.744759 4.71708
rclavicle -2.8625e-014 4.6118e-014
rhumerus -41.0853 18.0849 -90.6054
rradius 67.3272
rwrist 11.9735
rhand -36.9774 5.95071
rfingers 7.12502
rthumb -10.0528 -23.7892
lclavicle -2.8625e-014 4.6118e-014
lhumerus 6.27011 -43.0243 75.2712
lradius 70.6941
lwrist 39.3889
lhand -29.0745 5.94535
lfingers 7.12502
lthumb -2.42366 35.9113
rfemur -30.6318 2.5798 27.0636
rtibia 35.169
rfoot -19.2033 -1.17148
rtoes -14.0463
lfemur -26.2046 11.562 -20.2437
ltibia 31.826
lfoot -15.2643 1.4262
ltoes -25.9932
917
root -15.2399 16.9775 44.7964 18.5825 -48.2743 -10.4787
lowerback 6.73497 -3.14645 2.72422
upperback 7.07542 -4.16485 -1.79335
thorax 3.24207 -1.97902 -3.21371
lowerneck -3.35404 -1.15894 -1.86495
upperneck -3.59941 -1.40759 13.384
head -0.438518 -0.804896 4.76488
rclavicle 1.43125e-014 1.74931e-014
rhumerus -41.1921 18.0745 -90.6767
rradius 67.3699
rwrist 11.8509
rhand -36.9517 5.93417
rfingers 7.12502
rthumb -10.028 -23.8069
lclavicle 1.43125e-014 1.74931e-014
lhumerus 5.97206 -42.8424 75.5104
lradius 70.2488
lwrist 39.4841
lhand -28.9426 6.09701
lfingers 7.12502
lthumb -2.29625 36.0644
rfemur -30.0521 2.45366 26.9777
rtibia 35.1411
rfoot -18.6661 -0.916807
rtoes -13.0409
lfemur -25.5444 11.5539 -20.2571
ltibia 31.7067
lfoot -15.4575 1.56863
ltoes -25.9369
918
root -15.2841 16.976 44.819 18.1165 -48.4184 -10.2675
lowerback 6.42955 -3.11442 2.57124
upperback 6.92715 -4.12959 -1.81271
thorax 3.26589 -1.96638 -3.16225
lowerneck -3.60055 -1.25429 -1.94032
upperneck -3.09333 -1.59189 13.4889
head -0.211944 -0.866887 4.81034
rclavicle -3.97569e-015 0
rhumerus -41.3145 18.0616 -90.751
rradius 67.4138
rwrist 11.7355
rhand -36.925 5.92548
rfingers 7.12502
rthumb -10.0022 -23.8168
lclavicle -3.97569e-015 0
lhumerus 5.66836 -42.6754 75.7544
lradius 69.7933
lwrist 39.553
lhand -28.8126 6.26518
lfingers 7.12502
lthumb -2.17076 36.2339
rfemur -29.4956 2.35117 26.8664
rtibia 35.0963
rfoot -18.1785 -0.655649
rtoes -11.7634
lfemur -24.911 11.5954 -20.2939
ltibia 31.5808
lfoot -15.6356 1.65866
ltoes -25.9251
919
root -15.3286 16.9746 44.841 17.6697 -48.5524 -10.0638
lowerback 6.11151 -3.08322 2.42936
upperback 6.77749 -4.0945 -1.82806
thorax 3.29517 -1.95323 -3.11334
lowerneck -3.8533 -1.35407 -2.0088
upperneck -2.57277 -1.78456 13.5715
head 0.0214518 -0.932016 4.84664
rclavicle -7.31528e-014 4.13472e-014
rhumerus -41.4524 18.0545 -90.8289
rradius 67.461
rwrist 11.6191
rhand -36.8916 5.89917
rfingers 7.12502
rthumb -9.97005 -23.8447
lclavicle -7.31528e-014 4.13472e-014
lhumerus 5.3565 -42.525 76.0045
lradius 69.3343
lwrist 39.612
lhand -28.6881 6.44338
lfingers 7.12502
lthumb -2.05052 36.4133
rfemur -28.9559 2.24426 26.7627
rtibia 35.0277
rfoot -17.7651 -0.37744
rtoes -10.2552
lfemur -24.2905 11.6258 -20.3206
ltibia 31.4483
lfoot -15.8128 1.74585
ltoes -25.8561
920
root -15.3735 16.9733 44.8628 17.2358 -48.6601 -9.86826
lowerback 5.78811 -3.06217 2.30343
upperback 6.62866 -4.0718 -1.83789
thorax 3.32718 -1.9456 -3.0673
lowerneck -4.10327 -1.44934 -2.08026
upperneck -2.05013 -1.97161 13.6459
head 0.255111 -0.99423 4.88144
rclavicle -2.78299e-014 3.65764e-014
rhumerus -41.5979 18.0613 -90.9111
rradius 67.4934
rwrist 11.516
rhand -36.8541 5.85949
rfingers 7.12502
rthumb -9.9339 -23.8861
lclavicle -2.78299e-014 3.65764e-014
lhumerus 5.02647 -42.3809 76.2624
lradius 68.883
lwrist 39.674
lhand -28.5695 6.62939
lfingers 7.12502
lthumb -1.93594 36.6004
rfemur -28.4275 2.12013 26.6764
rtibia 34.9371
rfoot -17.426 -0.115636
rtoes -8.61509
lfemur -23.6762 11.622 -20.3314
ltibia 31.3108
lfoot -15.9956 1.83671
ltoes -25.6639
921
root -15.4183 16.9719 44.8845 16.8246 -48.7423 -9.68569
lowerback 5.45448 -3.0506 2.20288
upperback 6.47923 -4.06051 -1.84219
thorax 3.36267 -1.94261 -3.02979
lowerneck -4.36233 -1.54449 -2.13284
upperneck -1.51375 -2.16085 13.6863
head 0.495043 -1.05673 4.90048
rclavicle 1.90833e-014 -2.06736e-014
rhumerus -41.7488 18.0836 -90.9963
rradius 67.5178
rwrist 11.4221
rhand -36.8085 5.7803
rfingers 7.12502
rthumb -9.88989 -23.9674
lclavicle 1.90833e-014 -2.06736e-014
lhumerus 4.67628 -42.2439 76.5307
lradius 68.4477
lwrist 39.753
lhand -28.4551 6.82119
lfingers 7.12502
lthumb -1.82546 36.7931
rfemur -27.9155 1.96982 26.6143
rtibia 34.8285
rfoot -17.1561 0.12036
rtoes -6.9298
lfemur -23.077 11.5752 -20.3256
ltibia 31.173
lfoot -16.1875 1.94126
ltoes -25.3334
922
root -15.463 16.9703 44.9061 16.4559 -48.7917 -9.54123
lowerback 5.10839 -3.04727 2.14965
upperback 6.33164 -4.05888 -1.83681
thorax 3.40451 -1.94256 -3.00915
lowerneck -4.61084 -1.63755 -2.20036
upperneck -0.990663 -2.34505 13.726
head 0.729322 -1.11761 4.92334
rclavicle 3.81667e-014 2.22639e-014
rhumerus -41.8978 18.1145 -91.0803
rradius 67.5244
rwrist 11.3318
rhand -36.7565 5.66922
rfingers 7.12502
rthumb -9.83973 -24.0809
lclavicle 3.81667e-014 2.22639e-014
lhumerus 4.30759 -42.1168 76.8126
lradius 68.0374
lwrist 39.8545
lhand -28.3385 7.0129
lfingers 7.12502
lthumb -1.71287 36.9858
rfemur -27.4173 1.79568 26.5961
rtibia 34.7095
rfoot -16.9414 0.311752
rtoes -5.27897
lfemur -22.4966 11.4714 -20.2843
ltibia 31.0396
lfoot -16.3915 2.07201
ltoes -24.8629
